<?xml version="1.0" encoding="UTF-8"?>
<svg xmlns="http://www.w3.org/2000/svg" version="1.1" viewBox="0 0 599 599">
  <!-- Generator: Adobe Illustrator 28.7.1, SVG Export Plug-In . SVG Version: 1.2.0 Build 142)  -->
  <g>
    <g id="Calque_1">
      <g id="Calque_1-2" data-name="Calque_1">
        <g>
          <path d="M299.3,569.4c-148.2,0-268.7-120.6-268.7-268.7S151.1,31.9,299.3,31.9s268.7,120.6,268.7,268.7-120.6,268.7-268.7,268.7h0ZM299.3,76.7c-123.4,0-223.8,100.4-223.8,223.8s100.4,223.8,223.8,223.8,223.8-100.4,223.8-223.8-100.4-223.8-223.8-223.8Z"/>
          <polygon points="348.3 479.2 303.4 479.2 407.8 169 452.6 169 348.3 479.2"/>
          <polygon points="312.6 432.3 289.4 366.4 356.4 169 401.1 169 312.6 432.3"/>
          <polygon points="260.2 362.2 282.1 300.6 238.3 169 194.5 169 260.2 362.2"/>
          <polygon points="247.3 479.2 292 479.2 187.8 169 143 169 247.3 479.2"/>
        </g>
      </g>
    </g>
  </g>
</svg>